<svg id="sq" xmlns="http://www.w3.org/2000/svg" viewBox="0 0 200 150"><defs><style>.cls-1,.cls-3,.cls-4{fill:none;}.cls-2{opacity:0.8;}.cls-3,.cls-4{stroke:#fff;stroke-miterlimit:10;stroke-width:2px;}.cls-3{stroke-linecap:round;}</style></defs><title>icon-mostly-cloudy</title><rect class="cls-1" width="200" height="150"/><g id="mostly-cloudy" class="cls-2"><g id="Overcast" class="cls-2"><path class="cls-3" d="M106.21,33.88a39,39,0,0,0-63.66,26.6c-0.42,0-.84,0-1.27,0A21.79,21.79,0,0,0,42.11,104"/><path class="cls-4" d="M155.17,72a24.15,24.15,0,0,0-4.63.45,39,39,0,0,0-76.93,4.13c-0.42,0-.84,0-1.27,0-12,0-21.69,10.63-21.69,22.61S60.36,122,72.34,122h82.83c13.23,0,24-11.75,24-25S168.41,72,155.17,72Z"/></g></g></svg>