<svg id="sq" xmlns="http://www.w3.org/2000/svg" viewBox="0 0 200 150"><defs><style>.cls-1,.cls-3,.cls-4,.cls-5{fill:none;}.cls-2{opacity:0.8;}.cls-3,.cls-4,.cls-5{stroke:#fff;stroke-width:2px;}.cls-3,.cls-4{stroke-linecap:round;}.cls-3,.cls-5{stroke-miterlimit:10;}.cls-4{stroke-linejoin:round;}</style></defs><title>icon-partly-cloudy</title><rect class="cls-1" width="200" height="150"/><g id="partly_cloudy" class="cls-2"><g id="Cloud_Increasing" data-name="Cloud Increasing" class="cls-2"><path class="cls-3" d="M52.31,85.85A29.08,29.08,0,1,1,95,47.69"/><line class="cls-4" x1="71.98" y1="12" x2="72.19" y2="21.91"/><line class="cls-4" x1="17" y1="69.37" x2="26.91" y2="69.16"/><line class="cls-4" x1="32.96" y1="29.23" x2="40.12" y2="36.09"/><line class="cls-4" x1="105.22" y1="33.47" x2="112.08" y2="26.31"/><line class="cls-4" x1="34.62" y1="107.14" x2="41.48" y2="99.98"/><path class="cls-5" d="M158.08,84a24.08,24.08,0,0,0-4.63.45,39,39,0,0,0-76.93,4.13c-0.42,0-.84,0-1.27,0-12,0-21.69,11.12-21.69,23.1S63.27,135,75.25,135h82.83c13.23,0,24-12.25,24-25.48S171.31,84,158.08,84Z"/></g></g></svg>