<svg id="sq" xmlns="http://www.w3.org/2000/svg" viewBox="0 0 200 150"><defs><style>.cls-1,.cls-3,.cls-4{fill:none;}.cls-2{opacity:0.8;}.cls-3,.cls-4{stroke:#fff;stroke-miterlimit:10;stroke-width:2px;}.cls-4{stroke-linecap:round;}</style></defs><title>icon-rain</title><rect class="cls-1" width="200" height="150"/><g id="rain" class="cls-2"><g id="Rain-2" data-name="Rain" class="cls-2"><path class="cls-3" d="M140.52,51.16a24.06,24.06,0,0,0-4.63.45A39,39,0,0,0,59,55.74c-0.42,0-.84,0-1.27,0C45.71,55.7,36,66.27,36,78.25S45.71,101,57.69,101h82.83c13.23,0,24-11.69,24-24.92S153.75,51.16,140.52,51.16Z"/><line class="cls-4" x1="65.75" y1="111.47" x2="55.21" y2="122.01"/><line class="cls-4" x1="76.49" y1="121.8" x2="65.95" y2="132.33"/><line class="cls-4" x1="97.97" y1="111.47" x2="87.43" y2="122.01"/><line class="cls-4" x1="107.06" y1="121.8" x2="96.52" y2="132.33"/><line class="cls-4" x1="130.19" y1="111.47" x2="119.66" y2="122.01"/><line class="cls-4" x1="138.04" y1="121.8" x2="127.51" y2="132.33"/></g></g></svg>