<svg id="sq" xmlns="http://www.w3.org/2000/svg" viewBox="0 0 200 150"><defs><style>.cls-1,.cls-3,.cls-4{fill:none;}.cls-2{opacity:0.8;}.cls-3,.cls-4{stroke:#fff;stroke-miterlimit:10;stroke-width:2px;}.cls-4{stroke-linecap:round;}</style></defs><title>icon-snow</title><rect class="cls-1" width="200" height="150"/><g id="snow" class="cls-2"><g id="Snow-2" data-name="Snow" class="cls-2"><path class="cls-3" d="M140.52,51.16a24.07,24.07,0,0,0-4.63.45A39,39,0,0,0,59,55.74c-0.42,0-.84,0-1.27,0C45.71,55.7,36,66.27,36,78.25S45.71,101,57.69,101h82.83c13.23,0,24-11.69,24-24.92S153.75,51.16,140.52,51.16Z"/><line class="cls-4" x1="65.89" y1="113.29" x2="74.94" y2="118.06"/><line class="cls-4" x1="72.9" y1="110.98" x2="68.07" y2="120.11"/><line class="cls-4" x1="96.43" y1="110.98" x2="100.71" y2="120.27"/><line class="cls-4" x1="103.39" y1="113.4" x2="94.01" y2="117.73"/><line class="cls-4" x1="123.12" y1="112.7" x2="131.7" y2="118.46"/><line class="cls-4" x1="130.44" y1="111.19" x2="124.69" y2="119.76"/><line class="cls-4" x1="82.27" y1="127.57" x2="89.07" y2="135.2"/><line class="cls-4" x1="89.63" y1="127.85" x2="81.93" y2="134.73"/><line class="cls-4" x1="110.97" y1="127.12" x2="116.75" y2="135.56"/><line class="cls-4" x1="118.24" y1="128.34" x2="109.72" y2="134.17"/><line class="cls-4" x1="137.92" y1="129.87" x2="147.75" y2="132.68"/><line class="cls-4" x1="144.29" y1="126.17" x2="141.46" y2="136.1"/></g></g></svg>