<svg id="sq" xmlns="http://www.w3.org/2000/svg" viewBox="0 0 200 150"><defs><style>.cls-1,.cls-3{fill:none;}.cls-2{opacity:0.8;}.cls-3{stroke:#fff;stroke-linecap:round;stroke-miterlimit:10;stroke-width:2px;}</style></defs><title>icon-flurries</title><rect class="cls-1" width="200" height="150"/><g id="flurries" class="cls-2"><g class="cls-2"><g id="Thunderstorm"><path class="cls-3" d="M115,101h25.52c13.23,0,24-11.74,24-25s-10.73-24.57-24-24.57a24.19,24.19,0,0,0-4.63.25,39,39,0,0,0-76.93,4c-0.42,0-.84-0.06-1.27-0.06C45.71,55.63,36,66.23,36,78.21S45.71,101,57.69,101H79"/></g><line class="cls-3" x1="95.43" y1="96.98" x2="99.71" y2="106.27"/><line class="cls-3" x1="102.39" y1="99.4" x2="93.01" y2="103.73"/><line class="cls-3" x1="81.27" y1="113.57" x2="88.07" y2="121.2"/><line class="cls-3" x1="88.63" y1="113.85" x2="80.93" y2="120.73"/><line class="cls-3" x1="109.97" y1="113.12" x2="115.75" y2="121.56"/><line class="cls-3" x1="117.24" y1="114.34" x2="108.72" y2="120.17"/></g></g></svg>