<svg id="sq" xmlns="http://www.w3.org/2000/svg" viewBox="0 0 200 150"><defs><style>.cls-1,.cls-3,.cls-4{fill:none;}.cls-2{opacity:0.8;}.cls-3,.cls-4{stroke:#fff;stroke-miterlimit:10;stroke-width:2px;}.cls-3{stroke-linecap:round;}</style></defs><title>icon-partly-cloudy-night</title><rect class="cls-1" width="200" height="150"/><g id="partly-cloudy-night" class="cls-2"><g id="Cloudy_Night" data-name="Cloudy Night" class="cls-2"><path class="cls-3" d="M162.9,92.23a34,34,0,0,0,4.41-1.87A33.66,33.66,0,0,0,176,84a33.71,33.71,0,0,1-29-57,33.75,33.75,0,0,0-26.58,21.62"/><path class="cls-4" d="M125.52,70.71a24.07,24.07,0,0,0-4.63.45A39,39,0,0,0,44,75.29c-0.42,0-.84,0-1.27,0C30.71,75.25,21,86.54,21,98.52S30.71,122,42.69,122h82.83c13.23,0,24-12.41,24-25.65S138.75,70.71,125.52,70.71Z"/></g></g></svg>