<svg id="sq" xmlns="http://www.w3.org/2000/svg" viewBox="0 0 200 150"><defs><style>.cls-1,.cls-3,.cls-4,.cls-5{fill:none;}.cls-2,.cls-3,.cls-4,.cls-5{opacity:0.8;}.cls-3,.cls-4,.cls-5{stroke:#fff;stroke-width:2px;}.cls-3,.cls-4{stroke-miterlimit:10;}.cls-4,.cls-5{stroke-linecap:round;}.cls-5{stroke-linejoin:round;}</style></defs><title>icon-hot</title><rect class="cls-1" width="200" height="150"/><g class="cls-2"><path class="cls-3" d="M68,94c15.83,22.79,0,35,0,35"/><path class="cls-3" d="M81,75.18C81.06,80.3,82.85,86.59,88,94c15.83,22.79,0,35,0,35"/><path class="cls-3" d="M108,59s-15.83,12.21,0,35,0,35,0,35"/><path class="cls-3" d="M128,59s-15.83,12.21,0,35,0,35,0,35"/><path class="cls-3" d="M168,94c15.83,22.79,0,35,0,35"/><path class="cls-3" d="M141,75.18c0.09,5.12,1.88,11.41,7,18.82,15.83,22.79,0,35,0,35"/><path class="cls-4" d="M57.31,90.85A29.08,29.08,0,1,1,100,52.69"/><line class="cls-5" x1="76.98" y1="17" x2="77.19" y2="26.91"/><line class="cls-5" x1="22" y1="74.37" x2="31.91" y2="74.16"/><line class="cls-5" x1="37.96" y1="34.23" x2="45.12" y2="41.09"/><line class="cls-5" x1="110.22" y1="38.47" x2="117.08" y2="31.31"/><line class="cls-5" x1="39.62" y1="112.14" x2="46.48" y2="104.98"/></g></svg>